<svg width="110" height="26" viewBox="0 0 110 26" fill="none" xmlns="http://www.w3.org/2000/svg">
<path d="M38.8526 18.1801C37.751 18.1801 36.7524 17.9433 35.8568 17.4697C34.9714 16.9859 34.2714 16.3219 33.7567 15.4777C33.2522 14.6233 33 13.6607 33 12.59C33 11.5194 33.2522 10.562 33.7567 9.71781C34.2714 8.86335 34.9714 8.19934 35.8568 7.72578C36.7524 7.24193 37.7562 7 38.868 7C39.8048 7 40.649 7.16472 41.4005 7.49415C42.1623 7.82358 42.8006 8.29714 43.3153 8.91482L41.7093 10.3973C40.9784 9.55309 40.0725 9.13101 38.9915 9.13101C38.3224 9.13101 37.7253 9.28028 37.2003 9.57883C36.6752 9.86708 36.2634 10.2737 35.9649 10.7988C35.6766 11.3238 35.5325 11.9209 35.5325 12.59C35.5325 13.2592 35.6766 13.8563 35.9649 14.3813C36.2634 14.9064 36.6752 15.3181 37.2003 15.6167C37.7253 15.9049 38.3224 16.0491 38.9915 16.0491C40.0725 16.0491 40.9784 15.6218 41.7093 14.7674L43.3153 16.2498C42.8006 16.8778 42.1623 17.3565 41.4005 17.6859C40.6387 18.0154 39.7894 18.1801 38.8526 18.1801Z" fill="white"/>
<path d="M44.5414 7.1853H49.452C50.6256 7.1853 51.6602 7.41179 52.5559 7.86476C53.4618 8.30743 54.1618 8.93541 54.656 9.74869C55.1604 10.562 55.4126 11.5091 55.4126 12.59C55.4126 13.671 55.1604 14.6181 54.656 15.4314C54.1618 16.2447 53.4618 16.8778 52.5559 17.3308C51.6602 17.7734 50.6256 17.9948 49.452 17.9948H44.5414V7.1853ZM49.3285 15.941C50.4094 15.941 51.269 15.6424 51.9073 15.0453C52.5559 14.4379 52.8801 13.6195 52.8801 12.59C52.8801 11.5606 52.5559 10.7473 51.9073 10.1502C51.269 9.5428 50.4094 9.2391 49.3285 9.2391H47.043V15.941H49.3285Z" fill="white"/>
<path d="M61.5149 7.1853C62.4723 7.1853 63.3011 7.34487 64.0011 7.66401C64.7114 7.98315 65.2571 8.43612 65.638 9.02292C66.0189 9.60971 66.2093 10.3046 66.2093 11.1076C66.2093 11.9003 66.0189 12.5952 65.638 13.1923C65.2571 13.7791 64.7114 14.2321 64.0011 14.5512C63.3011 14.86 62.4723 15.0145 61.5149 15.0145H59.3376V17.9948H56.836V7.1853H61.5149ZM61.376 12.9761C62.1275 12.9761 62.6988 12.8165 63.09 12.4974C63.4812 12.168 63.6768 11.7047 63.6768 11.1076C63.6768 10.5002 63.4812 10.0369 63.09 9.71781C62.6988 9.38838 62.1275 9.22366 61.376 9.22366H59.3376V12.9761H61.376Z" fill="white"/>
<path d="M75.0519 18.0874C74.2489 18.0874 73.4768 17.9587 72.7355 17.7014C72.0046 17.444 71.4384 17.1043 71.0369 16.6822L71.4847 15.802C71.8759 16.1932 72.3958 16.5123 73.0444 16.7594C73.693 16.9962 74.3621 17.1146 75.0519 17.1146C76.0196 17.1146 76.7453 16.9396 77.2292 16.5895C77.7131 16.2292 77.955 15.766 77.955 15.1998C77.955 14.7674 77.8212 14.4225 77.5535 14.1651C77.2961 13.9078 76.977 13.7122 76.5961 13.5783C76.2152 13.4342 75.685 13.2798 75.0055 13.1151C74.1923 12.9092 73.5437 12.7136 73.0598 12.5283C72.576 12.3327 72.159 12.0393 71.809 11.6481C71.4693 11.2569 71.2994 10.7267 71.2994 10.0575C71.2994 9.51192 71.4436 9.01777 71.7318 8.57509C72.0201 8.12213 72.4627 7.76181 73.0598 7.49415C73.6569 7.22648 74.3982 7.09265 75.2835 7.09265C75.9012 7.09265 76.5034 7.18016 77.0902 7.35517C77.6873 7.51988 78.2021 7.75152 78.6344 8.05006L78.2484 8.96115C77.7954 8.6626 77.3116 8.44126 76.7968 8.29714C76.2821 8.14272 75.7776 8.06551 75.2835 8.06551C74.3364 8.06551 73.6209 8.25081 73.137 8.62142C72.6635 8.98174 72.4267 9.45015 72.4267 10.0267C72.4267 10.459 72.5554 10.8091 72.8128 11.0767C73.0804 11.3341 73.4099 11.5348 73.8011 11.679C74.2026 11.8128 74.7379 11.9621 75.407 12.1268C76.1997 12.3224 76.838 12.518 77.3219 12.7136C77.816 12.8989 78.2329 13.1871 78.5727 13.5783C78.9124 13.9592 79.0823 14.4791 79.0823 15.138C79.0823 15.6836 78.933 16.1829 78.6344 16.6359C78.3462 17.0785 77.8984 17.4337 77.291 17.7014C76.6836 17.9587 75.9372 18.0874 75.0519 18.0874Z" fill="white"/>
<path d="M83.7185 9.81046C84.7789 9.81046 85.5921 10.0781 86.1584 10.6135C86.7246 11.1385 87.0077 11.9209 87.0077 12.9607V17.9948H85.9576V16.7285C85.7105 17.1506 85.3451 17.48 84.8612 17.7168C84.3877 17.9536 83.8215 18.072 83.1626 18.072C82.2567 18.072 81.536 17.8558 81.0007 17.4234C80.4654 16.991 80.1977 16.4197 80.1977 15.7093C80.1977 15.0196 80.4448 14.4637 80.9389 14.0416C81.4434 13.6195 82.2412 13.4085 83.3325 13.4085H85.9113V12.9143C85.9113 12.2143 85.7157 11.6841 85.3245 11.3238C84.9333 10.9532 84.3619 10.7679 83.6104 10.7679C83.0957 10.7679 82.6015 10.8554 82.128 11.0304C81.6544 11.1951 81.2478 11.4267 80.908 11.7253L80.4139 10.9069C80.8257 10.5568 81.3198 10.2892 81.8963 10.1039C82.4728 9.90826 83.0802 9.81046 83.7185 9.81046ZM83.3325 17.2072C83.9501 17.2072 84.4803 17.0683 84.923 16.7903C85.3657 16.502 85.6951 16.0903 85.9113 15.5549V14.2269H83.3633C81.9735 14.2269 81.2787 14.7108 81.2787 15.6785C81.2787 16.152 81.4588 16.5278 81.8191 16.8057C82.1794 17.0734 82.6839 17.2072 83.3325 17.2072Z" fill="white"/>
<path d="M96.1969 9.87223L92.5835 17.9948H91.4562L87.8582 9.87223H89.0009L92.043 16.7903L95.116 9.87223H96.1969Z" fill="white"/>
<path d="M104.124 14.2732H97.3295C97.3913 15.1174 97.7156 15.802 98.3024 16.327C98.8892 16.8418 99.6304 17.0991 100.526 17.0991C101.03 17.0991 101.494 17.0116 101.916 16.8366C102.338 16.6513 102.703 16.3837 103.012 16.0336L103.63 16.744C103.27 17.1763 102.817 17.5058 102.271 17.7323C101.736 17.9587 101.144 18.072 100.495 18.072C99.6613 18.072 98.92 17.897 98.2715 17.547C97.6332 17.1866 97.1339 16.6925 96.7736 16.0645C96.4133 15.4365 96.2331 14.7262 96.2331 13.9335C96.2331 13.1408 96.403 12.4305 96.7427 11.8025C97.0927 11.1745 97.5663 10.6855 98.1634 10.3355C98.7708 9.98547 99.4502 9.81046 100.202 9.81046C100.953 9.81046 101.628 9.98547 102.225 10.3355C102.822 10.6855 103.29 11.1745 103.63 11.8025C103.97 12.4202 104.139 13.1305 104.139 13.9335L104.124 14.2732ZM100.202 10.7524C99.4193 10.7524 98.7605 11.0047 98.2252 11.5091C97.7001 12.0032 97.4016 12.6518 97.3295 13.4548H103.089C103.017 12.6518 102.714 12.0032 102.178 11.5091C101.653 11.0047 100.994 10.7524 100.202 10.7524Z" fill="white"/>
<path d="M106.958 11.4628C107.215 10.9171 107.596 10.5054 108.101 10.2274C108.615 9.94944 109.248 9.81046 110 9.81046V10.876L109.737 10.8605C108.883 10.8605 108.214 11.123 107.73 11.6481C107.246 12.1731 107.004 12.9092 107.004 13.8563V17.9948H105.908V9.87223H106.958V11.4628Z" fill="white"/>
<path d="M22.813 4.49982L17.5359 9.77692C18.9164 11.7039 18.9164 14.2961 17.5359 16.2231L22.813 21.5002C27.0622 16.6299 27.0622 9.37005 22.813 4.49982Z" fill="#37B06F"/>
<path d="M4.49976 3.18687L9.77686 8.46397C11.7039 7.08346 14.296 7.08346 16.223 8.46397L21.5001 3.18687C16.6299 -1.06229 9.36999 -1.06229 4.49976 3.18687Z" fill="#37B06F"/>
<path d="M16.223 17.5362C14.296 18.9167 11.7039 18.9167 9.77686 17.5362L4.49976 22.8133C9.36999 27.0625 16.6299 27.0625 21.5001 22.8133L16.223 17.5362Z" fill="#37B06F"/>
<path d="M8.46397 9.77692L3.18687 4.49982C-1.06229 9.37005 -1.06229 16.6299 3.18687 21.5002L8.46397 16.2231C7.08346 14.2961 7.08346 11.7039 8.46397 9.77692Z" fill="#37B06F"/>
</svg>
