<svg width="20" height="20" viewBox="0 0 20 20" fill="none" xmlns="http://www.w3.org/2000/svg">
<g opacity="0.5">
<path fill-rule="evenodd" clip-rule="evenodd" d="M10 18.6667C14.7865 18.6667 18.6667 14.7865 18.6667 10C18.6667 5.21353 14.7865 1.33333 10 1.33333C5.21353 1.33333 1.33333 5.21353 1.33333 10C1.33333 14.7865 5.21353 18.6667 10 18.6667ZM10 20C15.5228 20 20 15.5228 20 10C20 4.47715 15.5228 0 10 0C4.47715 0 0 4.47715 0 10C0 15.5228 4.47715 20 10 20Z" fill="white"/>
<g clip-path="url(#clip0)">
<path d="M12.374 14.4809L12.2143 15.1337C11.7352 15.3227 11.3526 15.4666 11.0676 15.5656C10.7824 15.6648 10.4509 15.7142 10.0733 15.7142C9.49331 15.7142 9.04222 15.5721 8.72049 15.29C8.39877 15.0066 8.23785 14.6476 8.23785 14.2121C8.23785 14.0435 8.24953 13.8701 8.2738 13.6934C8.29828 13.5165 8.33721 13.3173 8.39047 13.0946L8.98916 10.9756C9.04242 10.7727 9.0877 10.5804 9.12395 10.3986C9.16073 10.2179 9.17845 10.0517 9.17845 9.90206C9.17845 9.63145 9.12242 9.44216 9.01087 9.33574C8.89933 9.22962 8.68649 9.17575 8.3705 9.17575C8.21573 9.17575 8.05666 9.20053 7.89452 9.24847C7.73166 9.29661 7.59246 9.34311 7.47559 9.38634L7.63568 8.73305C8.02788 8.57337 8.40276 8.43663 8.76136 8.32314C9.11996 8.20934 9.45879 8.15239 9.77929 8.15239C10.3552 8.15239 10.7997 8.29159 11.1118 8.56999C11.4239 8.84859 11.5799 9.20975 11.5799 9.6548C11.5799 9.74688 11.5696 9.90913 11.5476 10.141C11.5261 10.3734 11.486 10.5864 11.4277 10.7801L10.8315 12.8906C10.7827 13.0601 10.7387 13.2539 10.7005 13.472C10.6611 13.6886 10.6422 13.8541 10.6422 13.9652C10.6422 14.2454 10.7047 14.4367 10.83 14.5384C10.9562 14.6402 11.1735 14.6908 11.4822 14.6908C11.6272 14.6908 11.7921 14.665 11.9753 14.6146C12.1581 14.5641 12.2913 14.5197 12.374 14.4809ZM12.5252 5.62028C12.5252 5.98799 12.3866 6.30204 12.1081 6.56026C11.8303 6.8194 11.4956 6.94907 11.104 6.94907C10.7112 6.94907 10.3756 6.8194 10.0947 6.56026C9.81421 6.30193 9.67368 5.98799 9.67368 5.62028C9.67368 5.25328 9.81421 4.93872 10.0947 4.67723C10.3751 4.41614 10.7113 4.28564 11.104 4.28564C11.4955 4.28564 11.8303 4.41644 12.1081 4.67723C12.3868 4.93872 12.5252 5.25338 12.5252 5.62028Z" fill="white"/>
</g>
</g>
<defs>
<clipPath id="clip0">
<rect width="11.4286" height="11.4286" fill="white" transform="translate(4.28613 4.28564)"/>
</clipPath>
</defs>
</svg>
