<svg width="48" height="48" viewBox="0 0 48 48" fill="none" xmlns="http://www.w3.org/2000/svg">
<g clip-path="url(#clip0)">
<path d="M47.2 41.6H46.4V16.8C46.4 16.3582 46.0418 16 45.6 16H2.4C1.9582 16 1.6 16.3582 1.6 16.8V41.6H0.8C0.3582 41.6 0 41.9582 0 42.4V44C0.0026 46.208 1.792 47.9974 4 48H44C46.208 47.9974 47.9974 46.208 48 44V42.4C48 41.9582 47.6418 41.6 47.2 41.6ZM3.2 17.6H44.8V41.6H30.4C30.1877 41.6011 29.9843 41.6856 29.8336 41.8352L28.4688 43.2H19.5312L18.1664 41.8352C18.0157 41.6856 17.8123 41.6011 17.6 41.6H3.2V17.6ZM46.4 44C46.4 45.3255 45.3255 46.4 44 46.4H4C2.6745 46.4 1.6 45.3255 1.6 44V43.2H17.2688L18.6344 44.5656C18.7844 44.7156 18.9878 44.8 19.2 44.8H28.8C29.0122 44.8 29.2156 44.7156 29.3656 44.5656L30.7312 43.2H46.4V44Z" fill="#939DA7"/>
<path d="M17.6624 34.628L27.3064 25.7872L36.9064 31.3784L44 24.2832V18.4H4V36.836L12.02 30.596L17.6624 34.628ZM5.6 33.564V20H42.4V23.6208L36.6472 29.3752L27.0936 23.8128L17.5376 32.572L11.98 28.6024L5.6 33.564Z" fill="#939DA7"/>
<path d="M11.2 15.2C11.6418 15.2 12 14.8418 12 14.4V12.6776L14.78 12.2136C15.0994 12.1599 15.3549 11.9189 15.4272 11.6032C15.6422 10.6622 16.0135 9.7638 16.5256 8.9456C16.6983 8.6706 16.6875 8.3184 16.4984 8.0544L14.8608 5.7656L16.1656 4.4608L18.4544 6.0984C18.7184 6.2875 19.0705 6.2983 19.3456 6.1256C20.1629 5.6138 21.0601 5.2425 22 5.0272C22.3157 4.9549 22.5567 4.6994 22.6104 4.38L23.0776 1.6H24.9224L25.3864 4.38C25.4401 4.6994 25.6811 4.9549 25.9968 5.0272C26.9378 5.2422 27.8362 5.6135 28.6544 6.1256C28.9294 6.2983 29.2816 6.2875 29.5456 6.0984L31.8344 4.4608L33.1392 5.7656L31.5016 8.0544C31.3125 8.3184 31.3017 8.6705 31.4744 8.9456C31.9862 9.7628 32.3575 10.6601 32.5728 11.6C32.6451 11.9157 32.9006 12.1567 33.22 12.2104L36 12.6744V14.4C36 14.8418 36.3582 15.2 36.8 15.2C37.2418 15.2 37.6 14.8418 37.6 14.4V12C37.5999 11.6092 37.3174 11.2757 36.932 11.2112L34 10.72C33.7859 9.9685 33.4869 9.2438 33.1088 8.56L34.8376 6.1432C35.0651 5.8248 35.0289 5.3885 34.752 5.112L32.488 2.8472C32.2113 2.5705 31.775 2.5347 31.4568 2.7624L29.04 4.4936C28.3563 4.1147 27.6316 3.8149 26.88 3.6L26.3896 0.665601C26.324 0.280801 25.9903 -0.000499334 25.6 6.6549e-07H22.4C22.0092 0.000100665 21.6757 0.282601 21.6112 0.668001L21.12 3.6C20.3685 3.8141 19.6438 4.1131 18.96 4.4912L16.5456 2.7648C16.2274 2.5371 15.7911 2.5729 15.5144 2.8496L13.2496 5.1144C12.9729 5.3911 12.9371 5.8274 13.1648 6.1456L14.8936 8.56C14.5147 9.2437 14.2149 9.9684 14 10.72L11.0656 11.2104C10.6808 11.276 10.3995 11.6097 10.4 12V14.4C10.4 14.8418 10.7582 15.2 11.2 15.2Z" fill="#939DA7"/>
<path d="M28.8 13.6C28.8 14.0418 29.1582 14.4 29.6 14.4C30.0418 14.4 30.4 14.0418 30.4 13.6C30.4 10.0654 27.5346 7.20001 24 7.20001C20.4654 7.20001 17.6 10.0654 17.6 13.6C17.6 14.0418 17.9582 14.4 18.4 14.4C18.8418 14.4 19.2 14.0418 19.2 13.6C19.2 10.949 21.349 8.80001 24 8.80001C26.651 8.80001 28.8 10.949 28.8 13.6Z" fill="#939DA7"/>
<path d="M20.8 13.6C20.8 14.0418 21.1582 14.4 21.6 14.4C22.0418 14.4 22.4001 14.0418 22.4001 13.6C22.4001 12.7163 23.1164 12 24.0001 12C24.8838 12 25.6001 12.7163 25.6001 13.6C25.6001 14.0418 25.9583 14.4 26.4001 14.4C26.8419 14.4 27.2001 14.0418 27.2001 13.6C27.2001 11.8327 25.7674 10.4 24.0001 10.4C22.2327 10.4 20.8 11.8327 20.8 13.6Z" fill="#939DA7"/>
<path d="M44 40V39.2V27.2H42.4V39.2H40.8V30.4H39.2V39.2H37.6V32.8H36V39.2H34.4V31.2H32.8V39.2H31.2V29.6H29.6V39.2H28V28H26.4V39.2H24.8V31.2H23.2V39.2H21.6V34.4H20V39.2H18.4V36H16.8V39.2H15.2V34.4H13.6V39.2H12V33.6H10.4V39.2H8.8V36H7.2V39.2H5.6V38.4H4V39.2V40V40.8H44V40Z" fill="#939DA7"/>
</g>
<defs>
<clipPath id="clip0">
<rect width="48" height="48" fill="white"/>
</clipPath>
</defs>
</svg>
