<svg width="45" height="45" viewBox="0 0 45 45" fill="none" xmlns="http://www.w3.org/2000/svg">
<path d="M38.41 6.59005C34.1602 2.34044 28.5098 0 22.4999 0C16.4899 0 10.8397 2.34044 6.59005 6.59005C2.34044 10.8399 0 16.49 0 22.4999C0 28.5099 2.34044 34.1603 6.59005 38.41C10.8397 42.6596 16.4901 45 22.4999 45C28.5098 45 34.1601 42.6596 38.4099 38.41C42.6596 34.1603 45 28.51 45 22.4999C45.0001 16.49 42.6596 10.8399 38.41 6.59005ZM41.8535 15.4199L32.9132 18.232C31.7701 15.4534 29.5464 13.2297 26.7678 12.0867L29.5799 3.14649C35.2567 5.22968 39.7704 9.74322 41.8535 15.4199ZM31.8614 22.5C31.8615 27.662 27.662 31.8617 22.5 31.8617C17.338 31.8617 13.1384 27.662 13.1384 22.5C13.1384 17.3381 17.3379 13.1386 22.5 13.1386C27.6619 13.1386 31.8614 17.3381 31.8614 22.5ZM22.4999 1.89317C24.3224 1.89317 26.0899 2.13214 27.7739 2.57828L24.9622 11.5175C24.1694 11.3398 23.3456 11.2454 22.4999 11.2454C21.6542 11.2454 20.8303 11.3398 20.0374 11.5175L17.2257 2.57828C18.9099 2.13223 20.6774 1.89317 22.4999 1.89317ZM15.4197 3.14649L18.232 12.0867C15.4534 13.2297 13.2295 15.4536 12.0865 18.2322L3.1464 15.4199C5.2295 9.7434 9.74322 5.22968 15.4197 3.14649ZM1.89317 22.4999C1.89317 20.6775 2.13205 18.9099 2.57828 17.2258L11.5172 20.0376C11.3397 20.8304 11.2452 21.6542 11.2452 22.4999C11.2452 23.3457 11.3397 24.1695 11.5173 24.9625L2.57836 27.7741C2.13206 26.0901 1.89317 24.3225 1.89317 22.4999ZM3.14649 29.5801L12.0866 26.768C13.2296 29.5465 15.4534 31.7705 18.2322 32.9134L15.4199 41.8537C9.74331 39.7706 5.22968 35.2569 3.14649 29.5801ZM22.5 43.1069C20.6773 43.1069 18.91 42.868 17.2259 42.4217L20.0377 33.4827C20.8305 33.6604 21.6543 33.7548 22.5 33.7548C23.3456 33.7548 24.1696 33.6603 24.9626 33.4827L26.649 38.8443C25.3089 39.1826 23.9173 39.3586 22.5 39.3586C21.9772 39.3586 21.5534 39.7825 21.5534 40.3052C21.5534 40.8278 21.9772 41.2518 22.5 41.2518C24.1128 41.2518 25.6958 41.0469 27.2181 40.6534L27.7742 42.4218C26.0902 42.8681 24.3225 43.1069 22.5 43.1069ZM29.5801 41.8535L29.0244 40.0866C32.1243 38.9391 34.8968 36.9755 37.0459 34.3339C37.3758 33.9283 37.3146 33.3322 36.9091 33.0023C36.5035 32.6723 35.9073 32.7334 35.5775 33.1392C33.666 35.4886 31.2064 37.2425 28.4558 38.2785L26.7682 32.9133C29.5468 31.7703 31.7705 29.5464 32.9134 26.7678L41.8537 29.5801C39.7705 35.2567 35.2569 39.7704 29.5801 41.8535ZM33.4826 24.9625C33.6603 24.1695 33.7546 23.3457 33.7546 22.5C33.7546 21.6544 33.6602 20.8306 33.4826 20.0376L42.4217 17.226C42.8679 18.9101 43.1069 20.6775 43.1069 22.5C43.1069 24.3225 42.8679 26.09 42.4217 27.7741L33.4826 24.9625Z" fill="#37B06F"/>
<path d="M14.4178 6.6071C14.1564 6.15437 13.5774 5.99898 13.1248 6.26063C11.1404 7.40629 9.40083 8.88848 7.95458 10.6662C7.62464 11.0716 7.68581 11.6679 8.09143 11.9978C8.26712 12.1407 8.47832 12.2101 8.68829 12.2101C8.9633 12.2101 9.23612 12.0908 9.42324 11.8609C10.7234 10.2627 12.2873 8.93014 14.0713 7.90015C14.5242 7.63867 14.6793 7.05983 14.4178 6.6071Z" fill="#37B06F"/>
<path d="M37.4398 32.2529C37.5862 32.3355 37.7454 32.3745 37.9024 32.3745C38.2331 32.3745 38.5547 32.2011 38.729 31.8931L38.7361 31.881C39.0005 31.43 38.849 30.85 38.3979 30.5858C37.9467 30.3216 37.3669 30.473 37.1025 30.9241L37.0778 30.9671C36.8227 31.4225 36.985 31.9967 37.4398 32.2529Z" fill="#37B06F"/>
<path d="M7.55874 12.7468C7.10391 12.4907 6.52673 12.6526 6.26956 13.1069L6.26068 13.1221C5.99815 13.574 6.15302 14.1508 6.60486 14.4136C6.75393 14.5004 6.91696 14.5414 7.07798 14.5414C7.4052 14.5414 7.72406 14.3717 7.9002 14.0689L7.92076 14.033C8.176 13.5776 8.01358 13.003 7.55874 12.7468Z" fill="#37B06F"/>
</svg>
