<svg width="15" height="15" viewBox="0 0 15 15" fill="none" xmlns="http://www.w3.org/2000/svg">
<path fill-rule="evenodd" clip-rule="evenodd" d="M5.5 9.95236C3.04103 9.95236 1.04764 7.95897 1.04764 5.5C1.04764 3.04103 3.04103 1.04764 5.5 1.04764C7.95897 1.04764 9.95236 3.04103 9.95236 5.5C9.95236 7.95897 7.95897 9.95236 5.5 9.95236ZM5.5 11C2.46243 11 0 8.53757 0 5.5C0 2.46243 2.46243 0 5.5 0C8.53757 0 11 2.46243 11 5.5C11 8.53757 8.53757 11 5.5 11Z" fill="#999999"/>
<path fill-rule="evenodd" clip-rule="evenodd" d="M14.3027 13.6967L9.30273 8.69666L8.69663 9.30276L13.6966 14.3028L14.3027 13.6967Z" fill="#999999"/>
<path fill-rule="evenodd" clip-rule="evenodd" d="M9.30276 8.4845L8.48453 9.30273L13.6967 14.5149L14.5149 13.6966L9.30276 8.4845ZM14.0906 13.6966L13.6967 14.0906L8.90879 9.30273L9.30276 8.90876L14.0906 13.6966Z" fill="#999999"/>
</svg>
