<svg width="38" height="28" viewBox="0 0 38 28" fill="none" xmlns="http://www.w3.org/2000/svg">
<path fill-rule="evenodd" clip-rule="evenodd" d="M9.3 1.7H1.7V15.3H9.3V1.7ZM0 0V17H11V0H0Z" fill="#37B06F"/>
<path fill-rule="evenodd" clip-rule="evenodd" d="M23.3 22.7H14.7V26.3H23.3V22.7ZM13 21V28H25V21H13Z" fill="#37B06F"/>
<path fill-rule="evenodd" clip-rule="evenodd" d="M23.3 1.7H14.7V17.3H23.3V1.7ZM13 0V19H25V0H13Z" fill="#37B06F"/>
<path fill-rule="evenodd" clip-rule="evenodd" d="M36.3 1.7H28.7V12.3H36.3V1.7ZM27 0V14H38V0H27Z" fill="#37B06F"/>
<path fill-rule="evenodd" clip-rule="evenodd" d="M36.3 17.7H28.7V26.3H36.3V17.7ZM27 16V28H38V16H27Z" fill="#37B06F"/>
<path fill-rule="evenodd" clip-rule="evenodd" d="M9.3 20.7H1.7V26.3H9.3V20.7ZM0 19V28H11V19H0Z" fill="#37B06F"/>
</svg>
